<?xml version="1.0" encoding="UTF-8"?>
<svg version="1.1" xmlns="http://www.w3.org/2000/svg" width="898" height="606">
<path d="M0 0 C296.34 0 592.68 0 898 0 C898 199.98 898 399.96 898 606 C601.66 606 305.32 606 0 606 C0 406.02 0 206.04 0 0 Z " fill="#297470" transform="translate(0,0)"/>
<path d="M0 0 C73.05375 -0.020625 146.1075 -0.04125 221.375 -0.0625 C256.03926025 -0.07615601 256.03926025 -0.07615601 291.40380859 -0.09008789 C319.51489258 -0.09460449 319.51489258 -0.09460449 332.65396118 -0.09544373 C341.87637586 -0.09637944 351.09878454 -0.10006097 360.32119751 -0.10557556 C370.94439623 -0.11191842 381.56758916 -0.11484124 392.1907898 -0.11344495 C397.63082441 -0.1128397 403.07084606 -0.11383261 408.51087832 -0.11921513 C413.4213466 -0.12404443 418.33179263 -0.12434773 423.24226189 -0.12090111 C425.025703 -0.12047389 426.80914545 -0.12176919 428.59258389 -0.12488258 C431.00688672 -0.12885256 433.42110779 -0.12675918 435.83540916 -0.12304783 C436.54091064 -0.12567485 437.24641212 -0.12830188 437.97329243 -0.13100851 C442.77170947 -0.11414527 442.77170947 -0.11414527 445 1 C445 198.34 445 395.68 445 599 C298.15 599 151.3 599 0 599 C0 401.33 0 203.66 0 0 Z " fill="#DBDBDC" transform="translate(453,7)"/>
<path d="M0 0 C1.28949602 -0.00782324 1.28949602 -0.00782324 2.60504246 -0.01580453 C3.55502582 -0.01134309 4.50500917 -0.00688164 5.48377991 -0.002285 C6.48863151 -0.00540498 7.4934831 -0.00852497 8.52878475 -0.01173949 C11.91756889 -0.0197578 15.30617587 -0.01338095 18.69496155 -0.00710678 C21.11562709 -0.00981494 23.53629181 -0.01337488 25.95695496 -0.0177269 C31.86227555 -0.02592271 37.76754964 -0.02469157 43.67286897 -0.01890162 C48.4706732 -0.0143916 53.26846318 -0.01376935 58.06626892 -0.01594925 C58.74815936 -0.01625572 59.4300498 -0.01656218 60.13260359 -0.01687793 C61.51769106 -0.01751736 62.90277853 -0.01816579 64.287866 -0.01882312 C77.28709587 -0.02453125 90.28629757 -0.01796096 103.28552282 -0.00722238 C114.4483837 0.00171357 125.61120298 0.00016166 136.77406311 -0.00905991 C149.72560721 -0.01975403 162.6771266 -0.02398188 175.62867451 -0.01783538 C177.00877189 -0.01719826 178.38886928 -0.01656951 179.76896667 -0.01594925 C180.78761626 -0.01548642 180.78761626 -0.01548642 181.82684463 -0.01501425 C186.62093283 -0.01328473 191.41500541 -0.01620793 196.20909119 -0.02090836 C202.65716125 -0.02709126 209.10517106 -0.02271256 215.5532341 -0.01111984 C217.92607873 -0.00846518 220.29892995 -0.00925197 222.671772 -0.01364517 C225.89842424 -0.01907037 229.12482001 -0.01230344 232.35145569 -0.002285 C233.77643073 -0.00897717 233.77643073 -0.00897717 235.23019314 -0.01580453 C236.08985715 -0.01058903 236.94952116 -0.00537354 237.8352356 0 C238.58068162 0.0003247 239.32612764 0.00064941 240.09416294 0.00098395 C241.9176178 0.25168228 241.9176178 0.25168228 243.9176178 2.25168228 C244.11743805 5.02503655 244.1974098 7.69637871 244.1832428 10.47043228 C244.18515625 11.2841127 244.1870697 12.09779312 244.18904114 12.93613052 C244.19040307 14.65769128 244.18670607 16.37926231 244.17835999 18.10080338 C244.16766038 20.74117398 244.1782548 23.38086418 244.1910553 26.02121353 C244.1897337 27.69178796 244.18717131 29.36236195 244.1832428 31.03293228 C244.18729126 31.82566544 244.19133972 32.61839859 244.19551086 33.43515396 C244.14753807 39.02176201 244.14753807 39.02176201 241.9176178 41.25168228 C240.09416294 41.50238061 240.09416294 41.50238061 237.8352356 41.50336456 C236.54573958 41.5111878 236.54573958 41.5111878 235.23019314 41.51916909 C234.28020978 41.51470765 233.33022642 41.51024621 232.35145569 41.50564957 C231.34660409 41.50876955 230.34175249 41.51188953 229.30645084 41.51510406 C225.9176667 41.52312236 222.52905973 41.51674551 219.14027405 41.51047134 C216.7196085 41.5131795 214.29894379 41.51673945 211.87828064 41.52109146 C205.97296004 41.52928728 200.06768596 41.52805613 194.16236663 41.52226618 C189.3645624 41.51775617 184.56677242 41.51713391 179.76896667 41.51931381 C179.08707624 41.51962028 178.4051858 41.51992674 177.70263201 41.5202425 C176.31754454 41.52088192 174.93245707 41.52153035 173.5473696 41.52218768 C160.54813973 41.52789581 147.54893803 41.52132553 134.54971278 41.51058695 C123.3868519 41.50165099 112.22403261 41.5032029 101.06117249 41.51242447 C88.10962838 41.52311859 75.15810899 41.52734644 62.20656109 41.52119994 C60.8264637 41.52056282 59.44636631 41.51993408 58.06626892 41.51931381 C57.38716919 41.51900526 56.70806947 41.51869671 56.00839096 41.51837881 C51.21430276 41.51664929 46.42023019 41.51957249 41.62614441 41.52427292 C35.17807435 41.53045582 28.73006453 41.52607713 22.2820015 41.51448441 C19.90915686 41.51182975 17.53630564 41.51261654 15.16346359 41.51700974 C11.93681136 41.52243493 8.71041558 41.515668 5.48377991 41.50564957 C4.05880487 41.51234173 4.05880487 41.51234173 2.60504246 41.51916909 C1.74537845 41.5139536 0.88571444 41.5087381 0 41.50336456 C-0.74544602 41.50303986 -1.49089205 41.50271515 -2.25892735 41.50238061 C-4.0823822 41.25168228 -4.0823822 41.25168228 -6.0823822 39.25168228 C-6.28220245 36.47832801 -6.3621742 33.80698585 -6.3480072 31.03293228 C-6.34992065 30.21925186 -6.35183411 29.40557144 -6.35380554 28.56723404 C-6.35516747 26.84567328 -6.35147048 25.12410226 -6.34312439 23.40256119 C-6.33242479 20.76219058 -6.3430192 18.12250039 -6.3558197 15.48215103 C-6.35449811 13.81157661 -6.35193572 12.14100261 -6.3480072 10.47043228 C-6.35205566 9.67769913 -6.35610413 8.88496597 -6.36027527 8.0682106 C-6.3123148 2.4830379 -5.9064457 0.00257276 0 0 Z " fill="#1E4C75" transform="translate(567.0823822021484,411.74831771850586)"/>
<path d="M0 0 C1.28949602 -0.00782324 1.28949602 -0.00782324 2.60504246 -0.01580453 C3.55502582 -0.01134309 4.50500917 -0.00688164 5.48377991 -0.002285 C6.48863151 -0.00540498 7.4934831 -0.00852497 8.52878475 -0.01173949 C11.91756889 -0.0197578 15.30617587 -0.01338095 18.69496155 -0.00710678 C21.11562709 -0.00981494 23.53629181 -0.01337488 25.95695496 -0.0177269 C31.86227555 -0.02592271 37.76754964 -0.02469157 43.67286897 -0.01890162 C48.4706732 -0.0143916 53.26846318 -0.01376935 58.06626892 -0.01594925 C58.74815936 -0.01625572 59.4300498 -0.01656218 60.13260359 -0.01687793 C61.51769106 -0.01751736 62.90277853 -0.01816579 64.287866 -0.01882312 C77.28709587 -0.02453125 90.28629757 -0.01796096 103.28552282 -0.00722238 C114.4483837 0.00171357 125.61120298 0.00016166 136.77406311 -0.00905991 C149.72560721 -0.01975403 162.6771266 -0.02398188 175.62867451 -0.01783538 C177.00877189 -0.01719826 178.38886928 -0.01656951 179.76896667 -0.01594925 C180.78761626 -0.01548642 180.78761626 -0.01548642 181.82684463 -0.01501425 C186.62093283 -0.01328473 191.41500541 -0.01620793 196.20909119 -0.02090836 C202.65716125 -0.02709126 209.10517106 -0.02271256 215.5532341 -0.01111984 C217.92607873 -0.00846518 220.29892995 -0.00925197 222.671772 -0.01364517 C225.89842424 -0.01907037 229.12482001 -0.01230344 232.35145569 -0.002285 C233.77643073 -0.00897717 233.77643073 -0.00897717 235.23019314 -0.01580453 C236.08985715 -0.01058903 236.94952116 -0.00537354 237.8352356 0 C238.58068162 0.0003247 239.32612764 0.00064941 240.09416294 0.00098395 C241.9176178 0.25168228 241.9176178 0.25168228 243.9176178 2.25168228 C244.11735513 4.95303551 244.19743353 7.54965439 244.1832428 10.25168228 C244.18515625 11.04316666 244.1870697 11.83465103 244.18904114 12.65011978 C244.19040298 14.32460218 244.18670661 15.99909513 244.17835999 17.67355728 C244.1676602 20.24150609 244.17825505 22.80875531 244.1910553 25.37668228 C244.1897337 27.00168383 244.18717131 28.62668494 244.1832428 30.25168228 C244.18729126 31.02254166 244.19133972 31.79340103 244.19551086 32.58761978 C244.14753912 38.02176096 244.14753912 38.02176096 241.9176178 40.25168228 C240.09416294 40.50238061 240.09416294 40.50238061 237.8352356 40.50336456 C236.54573958 40.5111878 236.54573958 40.5111878 235.23019314 40.51916909 C234.28020978 40.51470765 233.33022642 40.51024621 232.35145569 40.50564957 C231.34660409 40.50876955 230.34175249 40.51188953 229.30645084 40.51510406 C225.9176667 40.52312236 222.52905973 40.51674551 219.14027405 40.51047134 C216.7196085 40.5131795 214.29894379 40.51673945 211.87828064 40.52109146 C205.97296004 40.52928728 200.06768596 40.52805613 194.16236663 40.52226618 C189.3645624 40.51775617 184.56677242 40.51713391 179.76896667 40.51931381 C179.08707624 40.51962028 178.4051858 40.51992674 177.70263201 40.5202425 C176.31754454 40.52088192 174.93245707 40.52153035 173.5473696 40.52218768 C160.54813973 40.52789581 147.54893803 40.52132553 134.54971278 40.51058695 C123.3868519 40.50165099 112.22403261 40.5032029 101.06117249 40.51242447 C88.10962838 40.52311859 75.15810899 40.52734644 62.20656109 40.52119994 C60.8264637 40.52056282 59.44636631 40.51993408 58.06626892 40.51931381 C57.38716919 40.51900526 56.70806947 40.51869671 56.00839096 40.51837881 C51.21430276 40.51664929 46.42023019 40.51957249 41.62614441 40.52427292 C35.17807435 40.53045582 28.73006453 40.52607713 22.2820015 40.51448441 C19.90915686 40.51182975 17.53630564 40.51261654 15.16346359 40.51700974 C11.93681136 40.52243493 8.71041558 40.515668 5.48377991 40.50564957 C4.05880487 40.51234173 4.05880487 40.51234173 2.60504246 40.51916909 C1.74537845 40.5139536 0.88571444 40.5087381 0 40.50336456 C-0.74544602 40.50303986 -1.49089205 40.50271515 -2.25892735 40.50238061 C-4.0823822 40.25168228 -4.0823822 40.25168228 -6.0823822 38.25168228 C-6.28211954 35.55032905 -6.36219793 32.95371017 -6.3480072 30.25168228 C-6.34992065 29.46019791 -6.35183411 28.66871353 -6.35380554 27.85324478 C-6.35516738 26.17876238 -6.35147102 24.50426943 -6.34312439 22.82980728 C-6.3324246 20.26185847 -6.34301945 17.69460925 -6.3558197 15.12668228 C-6.35449811 13.50168073 -6.35193571 11.87667962 -6.3480072 10.25168228 C-6.35205566 9.48082291 -6.35610413 8.70996353 -6.36027527 7.91574478 C-6.31141367 2.38080252 -5.82159731 0.0025358 0 0 Z " fill="#CACBCC" transform="translate(568.0823822021484,340.74831771850586)"/>
<path d="M0 0 C1.29209417 -0.00597315 1.29209417 -0.00597315 2.61029124 -0.01206696 C3.55192221 -0.00624128 4.49355318 -0.00041559 5.46371841 0.00558662 C6.46760644 0.00387777 7.47149447 0.00216892 8.50580335 0.00040829 C11.87923713 -0.00289343 15.25247327 0.00812844 18.62588882 0.01904488 C21.04024119 0.01960884 23.45459391 0.01929272 25.86894608 0.01815987 C31.07180833 0.01770401 36.27462565 0.0233873 41.47747421 0.03463554 C48.99992011 0.05088803 56.52234174 0.05609829 64.04480329 0.05861153 C76.24941717 0.06298903 88.45400431 0.07629962 100.65860367 0.09521675 C112.51439658 0.11357413 124.37018223 0.12773133 136.22598648 0.13623238 C137.32213101 0.13702055 137.32213101 0.13702055 138.44041988 0.13782464 C142.10643476 0.14043471 145.77244968 0.14296213 149.43846464 0.14544845 C179.85284653 0.16618266 210.267196 0.20155833 240.68155289 0.24609566 C242.20503324 3.29305636 241.82366846 6.46689627 241.81436539 9.80859566 C241.81532211 10.55568794 241.81627884 11.30278023 241.81726456 12.07251167 C241.81794537 13.65283479 241.81609792 15.23316071 241.81192398 16.81347847 C241.80657431 19.23639375 241.81187224 21.65912366 241.81827164 24.08203316 C241.81761084 25.61588773 241.81632964 27.1497422 241.81436539 28.68359566 C241.81638962 29.41070747 241.81841385 30.13781929 241.82049942 30.8869648 C241.79651469 36.01617205 241.79651469 36.01617205 240.68155289 38.24609566 C158.84155289 38.24609566 77.00155289 38.24609566 -7.31844711 38.24609566 C-8.85142008 35.18014972 -8.43976166 31.97497713 -8.41610336 28.61328316 C-8.41468842 27.86144753 -8.41327347 27.10961189 -8.41181564 26.33499336 C-8.40621176 23.93032056 -8.39365868 21.52574038 -8.38094711 19.12109566 C-8.37593261 17.49219075 -8.37136962 15.86328439 -8.36727524 14.23437691 C-8.35624108 10.23824739 -8.3389739 6.24218724 -8.31844711 2.24609566 C-5.41075926 0.59129557 -3.33691357 -0.00341198 0 0 Z " fill="#DADBDC" transform="translate(568.3184471130371,281.75390434265137)"/>
<path d="M0 0 C1.34560065 0.43269906 2.69155081 0.86431253 4.03782654 1.29490662 C7.58159934 2.43127924 11.12084395 3.58114018 14.65917969 4.73431396 C18.87113373 6.10461035 23.08792554 7.45991212 27.30409813 8.81715965 C27.98889559 9.03761263 28.67369305 9.25806561 29.37924194 9.48519897 C30.40109148 9.81412706 30.40109148 9.81412706 31.44358444 10.14970016 C33.49460894 10.81076242 35.54492618 11.47398044 37.59512329 12.13760376 C46.64232773 15.061805 55.71531675 17.88924508 64.84046936 20.56190491 C70.79294062 22.33075966 76.51735893 24.47613485 82.24609375 26.87109375 C82.24609375 28.19109375 82.24609375 29.51109375 82.24609375 30.87109375 C75.89963665 33.29701759 69.50186797 35.52871008 63.05859375 37.68359375 C62.0113916 38.03397705 60.96418945 38.38436035 59.88525391 38.74536133 C52.13787832 41.30892572 44.3413295 43.60866229 36.47973633 45.79223633 C30.53526435 47.45777952 24.7730669 49.43293605 18.984375 51.58203125 C13.32119342 53.53485249 7.56247214 55.12888799 1.79101562 56.72851562 C-2.36621144 57.88418042 -6.45087355 59.10035959 -10.515625 60.55078125 C-18.02019661 63.04163589 -23.35207914 61.24597354 -30.56640625 58.68359375 C-32.44967431 58.03399894 -34.33380263 57.3868932 -36.21875 56.7421875 C-37.15315918 56.42233887 -38.08756836 56.10249023 -39.05029297 55.77294922 C-43.55891195 54.26899053 -48.11921372 52.96132192 -52.68920898 51.65893555 C-58.80297496 49.90092504 -64.78820307 47.83313322 -70.77734375 45.69140625 C-73.77382908 44.56833799 -73.77382908 44.56833799 -76.75390625 45.87109375 C-81.51869088 52.97587938 -83.9867907 61.35558956 -82.75390625 69.87109375 C-80.81492746 72.54507851 -80.81492746 72.54507851 -78.75390625 74.87109375 C-78.12570946 79.89666805 -78.75907594 82.79812452 -81.75390625 86.87109375 C-82.08390625 87.20109375 -82.41390625 87.53109375 -82.75390625 87.87109375 C-82.47074218 96.95179807 -80.88447529 106.08595372 -79.68359375 115.08203125 C-79.54953125 116.14421875 -79.41546875 117.20640625 -79.27734375 118.30078125 C-79.09051025 119.72753174 -79.09051025 119.72753174 -78.89990234 121.18310547 C-78.74995294 123.94387953 -79.0918641 126.19683184 -79.75390625 128.87109375 C-83.06638812 128.89997521 -86.37883792 128.91785174 -89.69140625 128.93359375 C-90.63693359 128.94197266 -91.58246094 128.95035156 -92.55664062 128.95898438 C-93.45576172 128.96220703 -94.35488281 128.96542969 -95.28125 128.96875 C-96.11390381 128.97398682 -96.94655762 128.97922363 -97.80444336 128.98461914 C-99.75390625 128.87109375 -99.75390625 128.87109375 -100.75390625 127.87109375 C-100.70069273 118.01328899 -99.36514412 108.30683964 -97.68261719 98.61206055 C-96.68420005 92.71140199 -96.68420005 92.71140199 -97.75390625 86.87109375 C-98.52734375 86.00484375 -98.52734375 86.00484375 -99.31640625 85.12109375 C-101.58547735 81.5695042 -101.57723232 77.95805467 -100.75390625 73.87109375 C-99.54734375 72.69546875 -99.54734375 72.69546875 -98.31640625 71.49609375 C-94.8976858 67.99398987 -95.27841491 65.64820534 -95.0546875 60.91796875 C-94.32709747 53.54757627 -91.33563203 46.31820015 -87.75390625 39.87109375 C-89.03265625 39.66484375 -90.31140625 39.45859375 -91.62890625 39.24609375 C-96.97399646 38.18323719 -102.08680111 36.57702928 -107.25390625 34.87109375 C-108.05554199 34.60989746 -108.85717773 34.34870117 -109.68310547 34.07958984 C-110.43865723 33.82516113 -111.19420898 33.57073242 -111.97265625 33.30859375 C-112.65263672 33.08042969 -113.33261719 32.85226563 -114.03320312 32.6171875 C-115.75390625 31.87109375 -115.75390625 31.87109375 -117.75390625 29.87109375 C-117.82128906 27.91210938 -117.82128906 27.91210938 -116.75390625 25.87109375 C-114.35298254 24.76083106 -112.19116559 23.96256848 -109.67578125 23.21484375 C-108.95336243 22.98583374 -108.2309436 22.75682373 -107.4866333 22.52087402 C-105.16364728 21.7885477 -102.83424374 21.0796358 -100.50390625 20.37109375 C-98.97999274 19.89474934 -97.45654868 19.4169003 -95.93359375 18.9375 C-91.54655717 17.56156041 -87.15120014 16.21382293 -82.75390625 14.87109375 C-74.73999771 12.41291911 -66.73745427 9.92620519 -58.75390625 7.37109375 C-51.74967665 5.13608024 -44.74469407 2.90912973 -37.70703125 0.78125 C-35.58442143 0.12705941 -33.47067697 -0.55615655 -31.36328125 -1.2578125 C-30.2340625 -1.62777344 -29.10484375 -1.99773437 -27.94140625 -2.37890625 C-26.94496094 -2.7140625 -25.94851562 -3.04921875 -24.921875 -3.39453125 C-15.89312055 -5.48751009 -8.57497811 -2.81878347 0 0 Z " fill="#DADBDC" transform="translate(237.75390625,158.12890625)"/>
<path d="M0 0 C296.34 0 592.68 0 898 0 C898 1.98 898 3.96 898 6 C897.22917306 5.9992201 896.45834612 5.99844019 895.66416078 5.99763666 C811.77295556 5.91293479 727.88174539 5.83440359 643.99050903 5.7882843 C642.7380807 5.78759402 641.48565237 5.78690373 640.19527166 5.78619253 C612.97896621 5.77122923 585.76266029 5.75737815 558.54635369 5.74467335 C545.87069762 5.73874982 533.19504166 5.73262116 520.51938576 5.72633779 C518.50731528 5.72534155 516.4952448 5.72435096 514.48317432 5.7233606 C483.49498079 5.70805815 452.50679709 5.68850934 421.51861572 5.65667725 C420.85218926 5.65599275 420.18576279 5.65530826 419.49914159 5.65460302 C408.7541673 5.64354097 398.00919339 5.632123 387.26421953 5.6206578 C342.34118147 5.57273148 297.41816035 5.54073417 252.49509669 5.53042505 C246.24975359 5.5289842 240.00441056 5.52735601 233.75906754 5.52561378 C231.91524318 5.52510811 231.91524318 5.52510811 230.03416984 5.52459222 C210.21872487 5.51867543 190.4033358 5.49546309 170.58791366 5.46583983 C150.68395217 5.43645125 130.7800463 5.42514812 110.87606387 5.43249311 C99.03957535 5.4363063 87.2032898 5.4260659 75.3668378 5.39601228 C67.46932055 5.37732353 59.57193688 5.37663865 51.67441057 5.39084093 C47.16851132 5.39842122 42.6629971 5.39793891 38.15713845 5.37558409 C34.06144827 5.35541776 29.96644516 5.35808374 25.87076609 5.37930012 C24.3949467 5.3828841 22.91907752 5.37800493 21.44332191 5.36382378 C12.76673767 4.96989558 12.76673767 4.96989558 5.14861691 8.41345245 C2.51142091 11.58816118 1.87517003 13.00413043 1.8723495 17.01291686 C1.86933353 17.85897964 1.86631756 18.70504241 1.8632102 19.57674345 C1.86497967 20.51341531 1.86674914 21.45008716 1.86857224 22.41514301 C1.8665196 23.40871645 1.86446697 24.40228988 1.86235213 25.4259716 C1.85664568 28.79386564 1.85814385 32.16171925 1.85955811 35.52961731 C1.85697656 37.95316305 1.85396399 40.37670837 1.8505547 42.80025309 C1.84330776 48.78717376 1.84078088 54.77408063 1.84022565 60.76100433 C1.83931349 67.92848289 1.83265039 75.09595316 1.82587883 82.26342816 C1.80980143 99.58893501 1.80391369 116.914441 1.79913008 134.23995396 C1.79679599 142.43203224 1.79319356 150.62410982 1.7894347 158.81618755 C1.776598 186.84487144 1.76587863 214.87355494 1.7624321 242.90224171 C1.76221046 244.66247137 1.76198868 246.42270103 1.76176675 248.18293069 C1.7615461 249.94747202 1.76132562 251.71201336 1.7611053 253.47655469 C1.76066274 257.01667774 1.76021563 260.55680078 1.75976562 264.09692383 C1.75965623 264.97467176 1.75954684 265.8524197 1.75943414 266.75676606 C1.75580227 295.22752674 1.73987796 323.69826198 1.71657526 352.16901291 C1.69199746 382.25251687 1.67826022 412.33600627 1.67706418 442.41952056 C1.67689272 445.71983731 1.67667729 449.02015406 1.67642975 452.32047081 C1.67637398 453.13313318 1.67631821 453.94579554 1.67626075 454.78308404 C1.67510855 467.87962775 1.6640722 480.97614543 1.64954269 494.07268033 C1.6351997 507.22824841 1.63192825 520.383783 1.63998267 533.53935675 C1.64444927 541.36126117 1.64053736 549.18305772 1.62474416 557.00494804 C1.61388921 562.8363964 1.61860272 568.66776299 1.62951604 574.49921366 C1.63148742 576.86531209 1.62832891 579.23142118 1.61967167 581.59750459 C1.60868769 584.80097187 1.61598966 588.00388262 1.6280632 591.20733356 C1.62046801 592.13698192 1.61287282 593.06663028 1.60504746 594.0244498 C1.6447047 598.86152416 1.89806281 602.03432365 5 606 C3.35 606 1.7 606 0 606 C0 406.02 0 206.04 0 0 Z " fill="#121218" transform="translate(0,0)"/>
<path d="M0 0 C9.89756716 2.23839489 19.40790088 5.36068414 29 8.625 C31.2316164 9.38061325 33.46367737 10.13487537 35.69628906 10.88754272 C37.07260114 11.35191706 38.44828917 11.81814652 39.82324219 12.28652954 C51.40131058 16.20646946 59.77290852 15.24224129 71.3125 11.25 C73.527198 10.51128165 75.74204027 9.77299567 77.95703125 9.03515625 C79.00455566 8.6808252 80.05208008 8.32649414 81.13134766 7.96142578 C84.57130613 6.80852736 88.02679845 5.73562591 91.5 4.6875 C95.76837986 3.39317996 99.99158261 2.00675938 104.1953125 0.515625 C106 0 106 0 109 0 C109.24297744 4.30406263 109.45767862 8.60835961 109.64697266 12.91503906 C109.7151743 14.37798058 109.79091388 15.84059185 109.87451172 17.30273438 C109.99378719 19.41232945 110.08533993 21.52165095 110.171875 23.6328125 C110.2347168 24.90012207 110.29755859 26.16743164 110.36230469 27.47314453 C109.852469 32.4361407 107.74176879 35.51139527 103.984375 38.72265625 C89.20873622 47.58287321 72.14018726 50.39788121 55.125 50.25 C53.98240723 50.24250732 52.83981445 50.23501465 51.66259766 50.22729492 C35.50928914 50.02138108 15.60422656 48.39860489 3 37 C1.90365234 36.03513672 1.90365234 36.03513672 0.78515625 35.05078125 C-2.00895681 30.27572151 -1.45994173 25.61007921 -1.3125 20.1875 C-1.30283203 19.13240234 -1.29316406 18.07730469 -1.28320312 16.99023438 C-1.20097099 11.25186148 -0.8421998 5.6762897 0 0 Z " fill="#D9DADB" transform="translate(166,215)"/>
<path d="M0 0 C2.68280323 1.39355565 5.1959534 2.94299276 7.73046875 4.58984375 C13.31775932 8.06146492 19.65250467 7.86648349 26 7 C29.80573542 5.55527623 33.22805382 3.52577095 36.7109375 1.43359375 C40.69848877 -0.30444819 42.82496704 -0.03381769 47 1 C53.40644166 4.20322083 56.41442379 8.98532103 58.9765625 15.47265625 C61.59398197 23.77745914 63.01322747 33.50895411 59.375 41.625 C53.26286084 47.73713916 49.51726192 48.46795147 40.86877441 48.55578613 C39.52709379 48.5486258 38.18541838 48.54042169 36.84375 48.53125 C35.45422088 48.53394796 34.0646936 48.5378329 32.6751709 48.54284668 C29.77007992 48.54872762 26.86548258 48.54022511 23.96044922 48.52148438 C20.24805149 48.49869457 16.53681061 48.51182537 12.82445526 48.53577423 C9.95724874 48.55027092 7.09031373 48.54560876 4.22309875 48.53526306 C2.85484172 48.53260641 1.48655955 48.53582803 0.11833191 48.54518127 C-13.18681744 48.61618866 -13.18681744 48.61618866 -18 44 C-20.98879958 39.53571708 -21.48314254 35.50497292 -21.375 30.25 C-21.36629883 29.54697754 -21.35759766 28.84395508 -21.34863281 28.11962891 C-21.10078375 19.26816691 -19.14644085 10.86861243 -12.48046875 4.5625 C-8.16585056 0.86725523 -5.72169051 -0.71521131 0 0 Z " fill="#040406" transform="translate(655,140)"/>
<path d="M0 0 C1.91313479 -0.00375528 1.91313479 -0.00375528 3.86491877 -0.00758642 C5.29646304 -0.00530923 6.72800716 -0.00294102 8.15955114 -0.00049198 C9.67399185 -0.00153404 11.18843232 -0.00301449 12.70287222 -0.00489634 C16.89846944 -0.00881847 21.09404389 -0.00644582 25.28964078 -0.00311839 C29.84123901 -0.0005961 34.39283358 -0.00383585 38.9444313 -0.00636172 C46.93292943 -0.00998532 54.92142082 -0.00985657 62.90991926 -0.00731456 C74.7887515 -0.00354482 86.667578 -0.00545916 98.54641019 -0.00852287 C119.75730538 -0.01379944 140.96819757 -0.01332792 162.17909305 -0.01044396 C180.74064632 -0.00793248 199.30219848 -0.00726979 217.86375189 -0.0084666 C219.70764469 -0.00858118 219.70764469 -0.00858118 221.58878784 -0.00869807 C226.578245 -0.00900939 231.56770215 -0.00932779 236.5571593 -0.00965784 C282.73216395 -0.01267592 328.90716687 -0.01009527 375.08217121 -0.00479134 C417.40749307 0.00006521 459.73281176 -0.0001602 502.0581336 -0.00502193 C548.81454511 -0.01037527 595.57095504 -0.01250256 642.32736683 -0.00940967 C647.30795018 -0.00908893 652.28853353 -0.00877609 657.26911688 -0.0084666 C658.49554351 -0.00838752 659.72197014 -0.00830845 660.98556121 -0.00822697 C679.53948168 -0.00708752 698.09340092 -0.00842345 716.64732122 -0.01094615 C737.7352364 -0.01379903 758.8231481 -0.01310426 779.91106284 -0.00766541 C791.72610758 -0.00471902 803.54114478 -0.00455194 815.35618933 -0.00831159 C823.23424865 -0.01054285 831.11230189 -0.00917869 838.9903603 -0.00480682 C843.48827732 -0.00241299 847.98617929 -0.00164561 852.48409587 -0.0052128 C856.56773735 -0.00841864 860.65135029 -0.0071065 864.73498965 -0.00203214 C866.21100425 -0.00101651 867.68702116 -0.00171296 869.16303395 -0.00423808 C871.15297688 -0.00740353 873.14292716 -0.00390604 875.13286877 0 C876.23894784 0.00006776 877.3450269 0.00013552 878.48462352 0.00020533 C881.06643438 0.12534916 881.06643438 0.12534916 883.06643438 1.12534916 C883.06643438 1.78534916 883.06643438 2.44534916 883.06643438 3.12534916 C882.2961636 3.1250372 881.52589283 3.12472524 880.73228051 3.12440383 C796.90761156 3.09052548 713.08294181 3.05911267 629.25826788 3.04066288 C628.00697317 3.04038677 626.75567846 3.04011066 625.46646573 3.03982618 C598.27525713 3.03384096 571.08404846 3.02830051 543.89283969 3.02321851 C531.22900553 3.02084908 518.5651714 3.01839761 505.90133727 3.01588428 C503.89113447 3.01548578 501.88093167 3.01508955 499.87072886 3.0146934 C468.90853773 3.00857188 437.94634817 3.00075133 406.98415899 2.98802006 C406.31820929 2.98774626 405.65225959 2.98747247 404.96612959 2.98719037 C394.22873136 2.98276551 383.49133319 2.97819834 372.75393502 2.97361228 C327.86943621 2.95444479 282.98494011 2.94164355 238.1004372 2.93751918 C231.86147993 2.93694284 225.62252268 2.93629156 219.38356543 2.93559468 C218.15559749 2.93545983 216.92762956 2.93532499 215.66245047 2.93518605 C195.86150989 2.93281869 176.06057825 2.923532 156.25964132 2.9116851 C136.37364746 2.89993397 116.4876625 2.89540733 96.60166529 2.89834641 C84.77371042 2.8998725 72.94578804 2.89576824 61.11783902 2.88375408 C53.22855298 2.87628501 45.33928835 2.87600008 37.45000087 2.88168554 C32.94726175 2.88472098 28.4445843 2.88451091 23.94185165 2.8755828 C19.85145745 2.86753344 15.76117347 2.86856649 11.67078112 2.87706921 C10.19456919 2.87850619 8.71834934 2.87653754 7.24214755 2.87087867 C5.247147 2.86371159 3.25211152 2.86995712 1.25711036 2.87695217 C0.14964793 2.87664021 -0.95781451 2.87632825 -2.09883641 2.87600683 C-4.98290544 3.12968909 -6.58302707 3.45587657 -8.93356562 5.12534916 C-10.77215049 7.89499449 -11.18365351 10.08803252 -11.18426394 13.37498963 C-11.18927098 14.22293638 -11.19427802 15.07088313 -11.19943678 15.94452524 C-11.19475445 16.87302023 -11.19007212 17.80151521 -11.1852479 18.75814641 C-11.18815478 19.75095038 -11.19106166 20.74375435 -11.19405663 21.76664329 C-11.20140167 25.11991499 -11.19439229 28.47300629 -11.1875329 31.8262769 C-11.18983555 34.24401232 -11.19301075 36.66174704 -11.19698739 39.07948029 C-11.20361702 44.34978212 -11.20398443 49.62002989 -11.19889307 54.89032948 C-11.19134267 62.72731079 -11.19518799 70.56425741 -11.20130968 78.40123847 C-11.21185427 92.39630119 -11.21092317 106.39134568 -11.20515186 120.38641015 C-11.200126 132.63352874 -11.19880489 144.88064064 -11.20119715 157.12776005 C-11.20134992 157.93930381 -11.20150269 158.75084756 -11.20166009 159.58698355 C-11.20228274 162.88108446 -11.20291953 166.17518536 -11.20357961 169.46928626 C-11.20970127 200.38721388 -11.20414491 231.30512988 -11.19338582 262.22305571 C-11.18389421 289.70774569 -11.18474345 317.19241715 -11.1943078 344.67710698 C-11.20501091 375.53752914 -11.20926717 406.39794103 -11.20308328 437.2583648 C-11.20244182 440.54655595 -11.20181614 443.83474711 -11.20119715 447.12293828 C-11.20103899 447.93260876 -11.20088084 448.74227925 -11.20071789 449.57648521 C-11.1984404 461.81761935 -11.20110823 474.05874608 -11.20615625 486.29987919 C-11.21186585 500.21489209 -11.21046419 514.12988385 -11.19959477 528.0448941 C-11.19370851 535.8381108 -11.1933585 543.63128178 -11.20088711 551.42449732 C-11.2058806 557.23273727 -11.20049123 563.04093654 -11.19093797 568.84917188 C-11.18869226 571.20711523 -11.18986618 573.56506466 -11.19468954 575.92300415 C-11.20071742 579.11294257 -11.19458784 582.30262706 -11.1852479 585.49255192 C-11.18993023 586.42104691 -11.19461256 587.34954189 -11.19943678 588.30617309 C-11.19442975 589.15411984 -11.18942271 590.00206659 -11.18426394 590.8757087 C-11.18412843 591.60542698 -11.18399291 592.33514527 -11.18385328 593.08697623 C-10.75497205 596.57983667 -9.39454093 598.66437386 -6.93356562 601.12534916 C-9.37060219 600.78920619 -10.69876219 600.33551569 -12.54616541 598.68195242 C-14.69513495 594.72198292 -14.34886037 590.90678157 -14.31946898 586.46969712 C-14.32472809 585.47441519 -14.3299872 584.47913326 -14.33540568 583.45369127 C-14.34945043 580.09189826 -14.34197294 576.73049082 -14.33470392 573.36868107 C-14.34030461 570.94483183 -14.34720526 568.52098531 -14.35529989 566.09714311 C-14.36986502 560.81339187 -14.3750106 555.52975431 -14.37193155 550.24599278 C-14.36736404 542.38885049 -14.37982583 534.53179973 -14.39555543 526.67467521 C-14.42459956 511.82643177 -14.43300903 496.97821934 -14.4347266 482.12995084 C-14.43610414 470.66509178 -14.44227346 459.20024492 -14.45182848 447.73538983 C-14.45452103 444.43769653 -14.45719047 441.14000321 -14.45985311 437.84230989 C-14.46051626 437.02254053 -14.4611794 436.20277116 -14.46186264 435.3581603 C-14.48033067 412.29293103 -14.49216378 389.22770601 -14.49083281 366.16246903 C-14.49078607 365.29248779 -14.49073933 364.42250655 -14.49069118 363.52616224 C-14.49044185 359.11653031 -14.49014473 354.70689838 -14.48983706 350.29726645 C-14.48977722 349.42146566 -14.48971739 348.54566488 -14.48965574 347.64332468 C-14.48953443 345.87224126 -14.48940903 344.10115784 -14.48927956 342.33007442 C-14.48744107 314.77146945 -14.509963 287.21297519 -14.55099726 259.6544019 C-14.59705799 228.70714415 -14.62289724 197.75995913 -14.62010759 166.81266493 C-14.61988369 163.51402855 -14.61973758 160.21539218 -14.61964464 156.9167558 C-14.61960968 156.10452128 -14.61957472 155.29228676 -14.61953869 154.45543907 C-14.61944629 141.37238805 -14.63862123 128.28943297 -14.66444144 115.20641049 C-14.68984619 102.06222 -14.69286038 88.9181702 -14.67311347 75.77396878 C-14.66200962 67.96124519 -14.66757425 60.14894836 -14.69694049 52.3362698 C-14.71699943 46.50818637 -14.70582737 40.68043882 -14.68232083 34.85235874 C-14.6776876 32.49032089 -14.68326993 30.12823721 -14.69990105 27.76625337 C-14.72096874 24.56291018 -14.70529697 21.36179038 -14.68023252 18.15852463 C-14.69513706 17.234702 -14.7100416 16.31087936 -14.7253978 15.35906211 C-14.62953047 9.59081613 -13.43412249 6.57777576 -9.41512811 2.40152659 C-6.35190303 -0.23705174 -3.95016539 0.00024199 0 0 Z " fill="#368DCF" transform="translate(14.933565616607666,4.874650835990906)"/>
<path d="M0 0 C5.55055247 3.15244359 10.46850914 8.52945725 12.8125 14.5 C13.71206571 21.82204647 13.42264826 28.52863805 8.8125 34.5 C3.66945011 39.92221335 -0.89452941 43.47505591 -8.5 43.8125 C-16.13077098 43.60968881 -21.77417069 40.91332931 -27.1875 35.5 C-32.089434 29.30808337 -31.98487988 23.20152275 -31.1875 15.5 C-29.68268041 8.92509593 -25.37835773 5.07741756 -20.0625 1.25 C-13.9451442 -2.47360788 -6.59903449 -2.92574381 0 0 Z " fill="#050507" transform="translate(684.1875,100.5)"/>
<path d="M0 0 C0.33 0 0.66 0 1 0 C1.00135653 1.23632337 1.00271306 2.47264674 1.00411069 3.74643445 C1.06400407 58.2132674 1.12635809 112.6800971 1.20132446 167.14691162 C1.20245809 167.97105586 1.20359171 168.79520009 1.20475969 169.64431839 C1.2294091 187.5536685 1.25450188 205.46301796 1.28005161 223.3723668 C1.29257785 232.15465718 1.30500608 240.93694769 1.31738281 249.71923828 C1.31861614 250.59319822 1.31984946 251.46715816 1.32112016 252.36760173 C1.36107525 280.71319608 1.39455401 309.05879359 1.42468691 337.40439994 C1.45567735 366.52459779 1.49317628 395.64478015 1.53890612 424.76495877 C1.54535686 428.87464476 1.55173291 432.98433086 1.55806351 437.09401703 C1.55931181 437.90289037 1.56056012 438.71176371 1.56184625 439.54514836 C1.58177686 452.58433524 1.59481294 465.62352041 1.60529328 478.66271793 C1.61596683 491.76026798 1.63385019 504.85779228 1.65916704 517.95532236 C1.67400115 525.74406777 1.68323334 533.53277374 1.68456683 541.32153341 C1.68616795 547.12662699 1.69808987 552.93166869 1.71413441 558.73674139 C1.71901003 561.09345452 1.72046806 563.45017754 1.71827881 565.80689469 C1.7158019 568.99524418 1.72544757 572.18332783 1.73828697 575.37164688 C1.73463729 576.29968091 1.73098761 577.22771494 1.72722733 578.18387121 C1.73315533 579.03140945 1.73908334 579.87894768 1.74519098 580.75216889 C1.74612686 581.48153429 1.74706275 582.21089969 1.74802699 582.96236707 C2.17981333 586.45409841 3.53936681 588.53936681 6 591 C3.56156159 590.66366367 2.23441385 590.20997756 0.3865273 588.55472249 C-1.75873975 584.60199688 -1.4081931 580.80312491 -1.3719368 576.37444019 C-1.37569793 575.38242581 -1.37945906 574.39041142 -1.38333416 573.36833599 C-1.39233409 570.01769544 -1.37979555 566.66747403 -1.36749268 563.31684875 C-1.36951551 560.9010996 -1.37285308 558.48535125 -1.37739825 556.06960553 C-1.38426238 550.80369646 -1.38175049 545.53791419 -1.37107468 540.27202034 C-1.35524378 532.44176638 -1.35654914 524.61158128 -1.36136696 516.78131616 C-1.36896299 503.61020438 -1.36243247 490.43913448 -1.34775543 477.26803017 C-1.33323577 464.22300197 -1.32446982 451.1779921 -1.32357025 438.13295555 C-1.32350916 437.32236277 -1.32344806 436.51176999 -1.32338512 435.67661378 C-1.32315561 432.38642612 -1.32296843 429.09623845 -1.32283698 425.80605078 C-1.32162505 395.80875801 -1.30591656 365.81149092 -1.28125 335.81420898 C-1.257951 307.47436321 -1.24378274 279.13453302 -1.24023438 250.79467773 C-1.2400671 249.48485742 -1.2400671 249.48485742 -1.23989645 248.1485761 C-1.2394476 244.62822451 -1.23900563 241.10787293 -1.23856402 237.58752134 C-1.23834365 235.83329793 -1.23812235 234.07907453 -1.23790014 232.32485112 C-1.23767879 230.57501921 -1.23746002 228.82518729 -1.23724384 227.07535537 C-1.23373219 199.24009679 -1.2222715 171.40484115 -1.2094375 143.56958551 C-1.2057147 135.4124527 -1.20245092 127.25532009 -1.20018864 119.09818673 C-1.19538566 101.94082611 -1.18833111 84.78347483 -1.17204097 67.62612072 C-1.16537437 60.52740855 -1.16024126 53.428704 -1.15958023 46.32998848 C-1.15897384 39.84312188 -1.15343501 33.35627395 -1.14426073 26.8694128 C-1.14173652 24.5115233 -1.1409259 22.15363128 -1.14191952 19.79574064 C-1.14300246 16.61314716 -1.13804211 13.43062174 -1.13142776 10.24803638 C-1.13319724 9.31326471 -1.13496671 8.37849303 -1.1367898 7.41539493 C-1.11415944 1.11415944 -1.11415944 1.11415944 0 0 Z " fill="#466BCE" transform="translate(2,15)"/>
<path d="M0 0 C1.98 0 3.96 0 6 0 C6.33 1.65 6.66 3.3 7 5 C7.33 3.35 7.66 1.7 8 0 C9.98 0 11.96 0 14 0 C14.33 1.65 14.66 3.3 15 5 C15.33 3.35 15.66 1.7 16 0 C17.65 0 19.3 0 21 0 C21 6.33333333 21 12.66666667 21 19 C19.35 19 17.7 19 16 19 C16 18.01 16 17.02 16 16 C15.34 16 14.68 16 14 16 C13.67 16.99 13.34 17.98 13 19 C11.35 19 9.7 19 8 19 C8 18.01 8 17.02 8 16 C7.34 16 6.68 16 6 16 C5.67 16.99 5.34 17.98 5 19 C3.35 19 1.7 19 0 19 C0 17.68 0 16.36 0 15 C0.639375 14.87625 1.27875 14.7525 1.9375 14.625 C2.618125 14.41875 3.29875 14.2125 4 14 C4.33 13.34 4.66 12.68 5 12 C3.35 12 1.7 12 0 12 C0 8.04 0 4.08 0 0 Z " fill="#B1ABA4" transform="translate(762,206)"/>
<path d="M0 0 C1.65 0 3.3 0 5 0 C5.99 3.63 6.98 7.26 8 11 C8.66 7.7 9.32 4.4 10 1 C11.65 1 13.3 1 15 1 C14.41632611 7.30367803 12.95928381 12.98660063 11 19 C9.02 19 7.04 19 5 19 C4.34 16.36 3.68 13.72 3 11 C2.01 13.64 1.02 16.28 0 19 C-1.98 19 -3.96 19 -6 19 C-6.67126129 16.5636811 -7.33716354 14.12611117 -8 11.6875 C-8.28617188 10.65206055 -8.28617188 10.65206055 -8.578125 9.59570312 C-9.37716184 6.64212051 -10 4.07440781 -10 1 C-8.35 1 -6.7 1 -5 1 C-4.34 4.3 -3.68 7.6 -3 11 C-2.01 7.37 -1.02 3.74 0 0 Z " fill="#2C2A32" transform="translate(577,206)"/>
<path d="M0 0 C10.125 0 10.125 0 14 3 C13.814375 4.134375 13.62875 5.26875 13.4375 6.4375 C13.2209375 8.2009375 13.2209375 8.2009375 13 10 C13.33 10.33 13.66 10.66 14 11 C14.3125 13.375 14.3125 13.375 14 16 C11.80597774 18.143352 10.49122201 18.94417932 7.421875 19.29296875 C6.54015625 19.25816406 5.6584375 19.22335938 4.75 19.1875 C3.1825 19.125625 1.615 19.06375 0 19 C0 12.73 0 6.46 0 0 Z " fill="#3F3D40" transform="translate(699,206)"/>
<path d="M0 0 C3.47921735 -0.02683201 6.95823039 -0.0467567 10.4375 -0.0625 C11.92733398 -0.07506836 11.92733398 -0.07506836 13.44726562 -0.08789062 C14.39150391 -0.09111328 15.33574219 -0.09433594 16.30859375 -0.09765625 C17.62041626 -0.10551147 17.62041626 -0.10551147 18.95874023 -0.11352539 C21 0 21 0 22 1 C22.07258946 3.18639453 22.08373783 5.37500389 22.0625 7.5625 C22.05347656 8.76003906 22.04445313 9.95757812 22.03515625 11.19140625 C22.02355469 12.11824219 22.01195312 13.04507813 22 14 C20.35 14 18.7 14 17 14 C17 10.37 17 6.74 17 3 C16.01 3.33 15.02 3.66 14 4 C13.67 7.3 13.34 10.6 13 14 C11.68 14 10.36 14 9 14 C8.67 10.7 8.34 7.4 8 4 C7.34 4 6.68 4 6 4 C5.67 7.3 5.34 10.6 5 14 C3.35 14 1.7 14 0 14 C0 9.38 0 4.76 0 0 Z " fill="#252427" transform="translate(650,211)"/>
<path d="M0 0 C1.65 0 3.3 0 5 0 C5.33 2.97 5.66 5.94 6 9 C6.99 8.01 7.98 7.02 9 6 C11.6875 5.8125 11.6875 5.8125 14 6 C13.46375 6.721875 12.9275 7.44375 12.375 8.1875 C10.67058139 10.89330625 10.67058139 10.89330625 11.6875 13.5625 C12.120625 14.366875 12.55375 15.17125 13 16 C13.37125 16.763125 13.7425 17.52625 14.125 18.3125 C14.41375 18.869375 14.7025 19.42625 15 20 C13.02 20 11.04 20 9 20 C8.34 18.35 7.68 16.7 7 15 C6.34 15 5.68 15 5 15 C5 16.65 5 18.3 5 20 C3.35 20 1.7 20 0 20 C0 13.4 0 6.8 0 0 Z " fill="#2D3037" transform="translate(746,205)"/>
<path d="M0 0 C2 1 2 1 3 3 C3.52265149 6.5838959 3.66071832 9.75629493 1.9375 13 C-1.17909511 14.60856522 -3.56262469 14.42213381 -7 14 C-9.4375 12.4375 -9.4375 12.4375 -11 10 C-11.42213381 6.56262469 -11.60856522 4.17909511 -10 1.0625 C-6.75629493 -0.66071832 -3.5838959 -0.52265149 0 0 Z " fill="#332E2E" transform="translate(643,211)"/>
<path d="M0 0 C0.66 0 1.32 0 2 0 C2 5.94 2 11.88 2 18 C-7 18 -7 18 -9.0625 16.375 C-10.25768801 13.34719037 -10.41213321 11.2283768 -10 8 C-8.9375 6.0625 -8.9375 6.0625 -7 5 C-3.3125 5.3125 -3.3125 5.3125 0 6 C0 4.02 0 2.04 0 0 Z " fill="#AEC9D0" transform="translate(132,312)"/>
<path d="M0 0 C0.66 0 1.32 0 2 0 C2 5.94 2 11.88 2 18 C-7 18 -7 18 -9.0625 16.375 C-10.25768801 13.34719037 -10.41213321 11.2283768 -10 8 C-8.9375 6.0625 -8.9375 6.0625 -7 5 C-3.3125 5.3125 -3.3125 5.3125 0 6 C0 4.02 0 2.04 0 0 Z " fill="#D1CDC0" transform="translate(245,312)"/>
<path d="M0 0 C2 1.1875 2 1.1875 3 3 C3.1875 5.6875 3.1875 5.6875 3 8 C0.03 8 -2.94 8 -6 8 C-5.67 8.66 -5.34 9.32 -5 10 C-2.69 10 -0.38 10 2 10 C1.67 11.32 1.34 12.64 1 14 C-6.22891566 14.48192771 -6.22891566 14.48192771 -9.5 12.4375 C-11.56021138 9.08965651 -11.49125459 6.85985753 -11 3 C-8.83533683 -1.19403489 -4.15117021 -0.6313238 0 0 Z " fill="#24252B" transform="translate(686,211)"/>
<path d="M0 0 C2 1.1875 2 1.1875 3 3 C3.1875 5.6875 3.1875 5.6875 3 8 C0.03 8 -2.94 8 -6 8 C-5.67 8.66 -5.34 9.32 -5 10 C-2.69 10 -0.38 10 2 10 C1.67 11.32 1.34 12.64 1 14 C-6.22891566 14.48192771 -6.22891566 14.48192771 -9.5 12.4375 C-11.56021138 9.08965651 -11.49125459 6.85985753 -11 3 C-8.83533683 -1.19403489 -4.15117021 -0.6313238 0 0 Z " fill="#24252B" transform="translate(605,211)"/>
<path d="M0 0 C1.64574566 -0.02688151 3.29161413 -0.04634123 4.9375 -0.0625 C5.85402344 -0.07410156 6.77054688 -0.08570313 7.71484375 -0.09765625 C10 0 10 0 11 1 C11.07258946 3.18639453 11.08373783 5.37500389 11.0625 7.5625 C11.05347656 8.76003906 11.04445313 9.95757812 11.03515625 11.19140625 C11.02355469 12.11824219 11.01195312 13.04507813 11 14 C10.01 14 9.02 14 8 14 C8 13.34 8 12.68 8 12 C7.01 12.66 6.02 13.32 5 14 C2.4375 14.25 2.4375 14.25 0 14 C-2 12 -2 12 -2.3125 9.5 C-2.209375 8.675 -2.10625 7.85 -2 7 C1.22791555 4.8480563 2.28400809 4.79913557 6 5 C6 4.34 6 3.68 6 3 C4.02 3 2.04 3 0 3 C0 2.01 0 1.02 0 0 Z " fill="#2B292A" transform="translate(717,211)"/>
<path d="M0 0 C0.66 0 1.32 0 2 0 C2 1.98 2 3.96 2 6 C3.11375 5.79375 4.2275 5.5875 5.375 5.375 C6.57125 5.25125 7.7675 5.1275 9 5 C11 7 11 7 11.265625 9.09375 C11.26046875 9.8878125 11.2553125 10.681875 11.25 11.5 C11.25515625 12.2940625 11.2603125 13.088125 11.265625 13.90625 C11 16 11 16 9 18 C6.03 18 3.06 18 0 18 C0 12.06 0 6.12 0 0 Z " fill="#BED5D1" transform="translate(343,312)"/>
<path d="M0 0 C1.65 0 3.3 0 5 0 C3.68 0.33 2.36 0.66 1 1 C0.67 4.3 0.34 7.6 0 11 C0.33 9.35 0.66 7.7 1 6 C1.99 6 2.98 6 4 6 C4 7.65 4 9.3 4 11 C3.01 11.495 3.01 11.495 2 12 C1.26924352 14.3140622 0.59861742 16.64828869 0 19 C-1.98 19 -3.96 19 -6 19 C-6.67126129 16.5636811 -7.33716354 14.12611117 -8 11.6875 C-8.28617188 10.65206055 -8.28617188 10.65206055 -8.578125 9.59570312 C-9.37716184 6.64212051 -10 4.07440781 -10 1 C-8.35 1 -6.7 1 -5 1 C-4.34 4.3 -3.68 7.6 -3 11 C-2.01 7.37 -1.02 3.74 0 0 Z " fill="#3B3436" transform="translate(577,206)"/>
<path d="M0 0 C0.33 0 0.66 0 1 0 C1.33 1.65 1.66 3.3 2 5 C2.33 3.35 2.66 1.7 3 0 C4.65 0 6.3 0 8 0 C8 6.33333333 8 12.66666667 8 19 C6.35 19 4.7 19 3 19 C3 18.01 3 17.02 3 16 C2.34 16 1.68 16 1 16 C0.67 16.66 0.34 17.32 0 18 C-1.30062431 14.18483536 -0.89369853 10.72438237 -0.5625 6.75 C-0.46066406 5.48671875 -0.35882812 4.2234375 -0.25390625 2.921875 C-0.17011719 1.95765625 -0.08632813 0.9934375 0 0 Z " fill="#B2B4B3" transform="translate(775,206)"/>
<path d="M0 0 C0.99 0 1.98 0 3 0 C3 2.31 3 4.62 3 7 C5.64 7 8.28 7 11 7 C11 4.69 11 2.38 11 0 C11.99 0 12.98 0 14 0 C14 5.61 14 11.22 14 17 C13.01 17 12.02 17 11 17 C11 14.36 11 11.72 11 9 C8.36 9 5.72 9 3 9 C3 11.64 3 14.28 3 17 C2.01 17 1.02 17 0 17 C0 11.39 0 5.78 0 0 Z " fill="#B7C7C5" transform="translate(311,313)"/>
<path d="M0 0 C0.66 0 1.32 0 2 0 C2.33 0.66 2.66 1.32 3 2 C3.598125 1.835 4.19625 1.67 4.8125 1.5 C7 1 7 1 10 1 C10 5 10 9 10 13 C9.401875 12.835 8.80375 12.67 8.1875 12.5 C5.88655664 11.8885876 5.88655664 11.8885876 3 12 C1.68 12 0.36 12 -1 12 C-1 1 -1 1 0 0 Z " fill="#131315" transform="translate(869,18)"/>
<path d="M0 0 C1.828125 0.1015625 1.828125 0.1015625 4 1 C5.484375 3.8359375 5.484375 3.8359375 6.75 7.375 C7.17796875 8.53773438 7.6059375 9.70046875 8.046875 10.8984375 C9 14 9 14 9 17 C8.34 17 7.68 17 7 17 C6.67 15.35 6.34 13.7 6 12 C3.36 12 0.72 12 -2 12 C-2.33 13.65 -2.66 15.3 -3 17 C-3.99 17 -4.98 17 -6 17 C-4.13236819 11.27789404 -2.14710968 5.62338249 0 0 Z " fill="#C5C9C1" transform="translate(87,313)"/>
<path d="M0 0 C2.79192205 -0.05380578 5.5828141 -0.09357669 8.375 -0.125 C9.1690625 -0.14175781 9.963125 -0.15851563 10.78125 -0.17578125 C12.85492015 -0.19335473 14.92883241 -0.10335168 17 0 C19 2 19 2 19.1953125 4.6015625 C19.17210937 5.59929687 19.14890625 6.59703125 19.125 7.625 C19.10695312 8.62789063 19.08890625 9.63078125 19.0703125 10.6640625 C19.04710937 11.43492187 19.02390625 12.20578125 19 13 C18.01 13 17.02 13 16 13 C16 9.37 16 5.74 16 2 C14.02 2.33 12.04 2.66 10 3 C10 6.3 10 9.6 10 13 C9.34 13 8.68 13 8 13 C8 9.37 8 5.74 8 2 C6.35 2.33 4.7 2.66 3 3 C2.67 6.3 2.34 9.6 2 13 C1.34 13 0.68 13 0 13 C0 8.71 0 4.42 0 0 Z " fill="#BACFD0" transform="translate(151,317)"/>
<path d="M0 0 C1.21236328 0.04060547 1.21236328 0.04060547 2.44921875 0.08203125 C3.06410156 0.11683594 3.67898438 0.15164062 4.3125 0.1875 C3.6525 1.5075 2.9925 2.8275 2.3125 4.1875 C0.9925 4.1875 -0.3275 4.1875 -1.6875 4.1875 C-1.6875 5.8375 -1.6875 7.4875 -1.6875 9.1875 C1.2825 9.6825 1.2825 9.6825 4.3125 10.1875 C4.3125 11.5075 4.3125 12.8275 4.3125 14.1875 C-2.91641566 14.66942771 -2.91641566 14.66942771 -6.1875 12.625 C-8.24771138 9.27715651 -8.17875459 7.04735753 -7.6875 3.1875 C-5.43768699 0.08332761 -3.73107689 -0.16222073 0 0 Z " fill="#343032" transform="translate(738.6875,210.8125)"/>
<path d="M0 0 C1.21236328 0.04060547 1.21236328 0.04060547 2.44921875 0.08203125 C3.06410156 0.11683594 3.67898438 0.15164062 4.3125 0.1875 C3.6525 1.5075 2.9925 2.8275 2.3125 4.1875 C0.9925 4.1875 -0.3275 4.1875 -1.6875 4.1875 C-1.6875 5.8375 -1.6875 7.4875 -1.6875 9.1875 C1.2825 9.6825 1.2825 9.6825 4.3125 10.1875 C4.3125 11.5075 4.3125 12.8275 4.3125 14.1875 C-2.91641566 14.66942771 -2.91641566 14.66942771 -6.1875 12.625 C-8.24771138 9.27715651 -8.17875459 7.04735753 -7.6875 3.1875 C-5.43768699 0.08332761 -3.73107689 -0.16222073 0 0 Z " fill="#342F31" transform="translate(625.6875,210.8125)"/>
<path d="M0 0 C5.28 0 10.56 0 16 0 C15.34 0.66 14.68 1.32 14 2 C14.99 2.66 15.98 3.32 17 4 C16.67 4.99 16.34 5.98 16 7 C10.39 7 4.78 7 -1 7 C-1 5.68 -1 4.36 -1 3 C0.32 3 1.64 3 3 3 C3 2.34 3 1.68 3 1 C2.01 0.67 1.02 0.34 0 0 Z " fill="#B4B6B9" transform="translate(581,361)"/>
<path d="M0 0 C0 0.66 0 1.32 0 2 C-3.3 2.33 -6.6 2.66 -10 3 C-10.04125 4.44375 -10.0825 5.8875 -10.125 7.375 C-10.15980469 8.59316406 -10.15980469 8.59316406 -10.1953125 9.8359375 C-10.21370051 12.21342243 -10.21370051 12.21342243 -8 14 C-6.01178687 14.39764263 -4.01055661 14.73775349 -2 15 C-2 13.35 -2 11.7 -2 10 C-2.99 10 -3.98 10 -5 10 C-5 9.34 -5 8.68 -5 8 C-3.02 8 -1.04 8 1 8 C1 10.97 1 13.94 1 17 C-7.88528458 17.6104394 -7.88528458 17.6104394 -11.625 15.5625 C-13.69045709 11.71323905 -13.74399963 8.26820838 -13 4 C-10.0569781 -1.24625643 -5.35967538 -0.41228272 0 0 Z " fill="#C5CECB" transform="translate(211,313)"/>
<path d="M0 0 C1.65 0 3.3 0 5 0 C5 6.6 5 13.2 5 20 C3.35 20 1.7 20 0 20 C0 13.4 0 6.8 0 0 Z " fill="#2B333F" transform="translate(611,205)"/>
<path d="M0 0 C3 0.25 3 0.25 5 2.25 C5.125 4.875 5.125 4.875 5 7.25 C2.36 7.25 -0.28 7.25 -3 7.25 C-2.67 8.24 -2.34 9.23 -2 10.25 C0.31 10.58 2.62 10.91 5 11.25 C5 11.91 5 12.57 5 13.25 C-2.36270368 13.73280024 -2.36270368 13.73280024 -5.0625 11.6875 C-6.39274773 8.2288559 -5.85607025 5.8059841 -5 2.25 C-3 0.25 -3 0.25 0 0 Z " fill="#79A7A8" transform="translate(296,316.75)"/>
<path d="M0 0 C3 0.25 3 0.25 5 2.25 C5.125 4.875 5.125 4.875 5 7.25 C2.36 7.25 -0.28 7.25 -3 7.25 C-2.67 8.24 -2.34 9.23 -2 10.25 C0.31 10.58 2.62 10.91 5 11.25 C5 11.91 5 12.57 5 13.25 C-2.36270368 13.73280024 -2.36270368 13.73280024 -5.0625 11.6875 C-6.39274773 8.2288559 -5.85607025 5.8059841 -5 2.25 C-3 0.25 -3 0.25 0 0 Z " fill="#85AAAE" transform="translate(143,316.75)"/>
<path d="M0 0 C0.33 0 0.66 0 1 0 C1 6.6 1 13.2 1 20 C0.01 19.01 -0.98 18.02 -2 17 C-4.30988315 16.25613932 -6.64315944 15.57809297 -9 15 C-9 13.35 -9 11.7 -9 10 C-8.05125 9.71125 -7.1025 9.4225 -6.125 9.125 C-2.94788422 8.23174891 -2.94788422 8.23174891 -1 6 C-0.60235737 4.01178687 -0.26224651 2.01055661 0 0 Z " fill="#CAC7C0" transform="translate(745,205)"/>
<path d="M0 0 C0.99 0 1.98 0 3 0 C3 3.3 3 6.6 3 10 C2.01 10 1.02 10 0 10 C-0.99 11.485 -0.99 11.485 -2 13 C-3.65 12.67 -5.3 12.34 -7 12 C-6.34 11.67 -5.68 11.34 -5 11 C-4.34 11.33 -3.68 11.66 -3 12 C-3 11.34 -3 10.68 -3 10 C-4.32 9.67 -5.64 9.34 -7 9 C-7 7.02 -7 5.04 -7 3 C-3.535 2.505 -3.535 2.505 0 2 C0 1.34 0 0.68 0 0 Z " fill="#B7BCB9" transform="translate(692,427)"/>
<path d="M0 0 C2.33294775 -0.04241723 4.66702567 -0.04092937 7 0 C8 1 8 1 8.09765625 3.94140625 C8.08605469 5.13636719 8.07445312 6.33132812 8.0625 7.5625 C8.05347656 8.76003906 8.04445313 9.95757812 8.03515625 11.19140625 C8.02355469 12.11824219 8.01195312 13.04507813 8 14 C6.35 14 4.7 14 3 14 C3 10.37 3 6.74 3 3 C1.68 2.67 0.36 2.34 -1 2 C-0.67 1.34 -0.34 0.68 0 0 Z " fill="#36302D" transform="translate(664,211)"/>
<path d="M0 0 C3.625 0.25 3.625 0.25 5.5625 1.75 C5.913125 2.245 6.26375 2.74 6.625 3.25 C6.0625 5.1875 6.0625 5.1875 4.625 7.25 C1.25 8.1875 1.25 8.1875 -2.375 8.25 C-4.8125 6.8125 -4.8125 6.8125 -6.375 5.25 C-3.97723048 0.29460967 -3.97723048 0.29460967 0 0 Z " fill="#636465" transform="translate(786.375,358.75)"/>
<path d="M0 0 C0.66 0 1.32 0 2 0 C2 2.64 2 5.28 2 8 C3.32 8 4.64 8 6 8 C6.33 6.35 6.66 4.7 7 3 C8.66611905 2.957279 10.33382885 2.95936168 12 3 C13 4 13 4 13.125 6.5 C13 9 13 9 12 10 C9.98035801 10.07244053 7.95832876 10.08377188 5.9375 10.0625 C4.83277344 10.05347656 3.72804688 10.04445313 2.58984375 10.03515625 C1.30787109 10.01775391 1.30787109 10.01775391 0 10 C0 6.7 0 3.4 0 0 Z " fill="#B9C4C0" transform="translate(670,427)"/>
<path d="M0 0 C2.31 0 4.62 0 7 0 C7 2.64 7 5.28 7 8 C8.65 8 10.3 8 12 8 C11.67 8.99 11.34 9.98 11 11 C9.0625 11.5625 9.0625 11.5625 7 12 C6.34 12.66 5.68 13.32 5 14 C2.875 11.3125 2.875 11.3125 1 8 C1.62024268 5.46264356 2.14549434 3.85450566 4 2 C2.68 1.34 1.36 0.68 0 0 Z " fill="#C3CACF" transform="translate(755,210)"/>
<path d="M0 0 C-0.020625 1.11375 -0.04125 2.2275 -0.0625 3.375 C-0.26380718 6.83215921 -0.26380718 6.83215921 1 9 C-0.64671412 8.69217504 -2.29235576 8.37860766 -3.9375 8.0625 C-4.85402344 7.88847656 -5.77054688 7.71445313 -6.71484375 7.53515625 C-9 7 -9 7 -10 6 C-10.04063832 4.33382885 -10.042721 2.66611905 -10 1 C-3.71428571 -1.42857143 -3.71428571 -1.42857143 0 0 Z " fill="#C8CDCF" transform="translate(633,214)"/>
<path d="M0 0 C0.66 0 1.32 0 2 0 C2.33 3.3 2.66 6.6 3 10 C4.65 10.33 6.3 10.66 8 11 C8.33 7.37 8.66 3.74 9 0 C9.66 0 10.32 0 11 0 C11 4.29 11 8.58 11 13 C4.1640625 13.1953125 4.1640625 13.1953125 2 13 C0 11 0 11 -0.1953125 8.3984375 C-0.17210937 7.40070313 -0.14890625 6.40296875 -0.125 5.375 C-0.10695313 4.37210937 -0.08890625 3.36921875 -0.0703125 2.3359375 C-0.04710937 1.56507813 -0.02390625 0.79421875 0 0 Z " fill="#C4D1C9" transform="translate(328,317)"/>
<path d="M0 0 C0.66 0 1.32 0 2 0 C2.33 3.3 2.66 6.6 3 10 C4.65 10.33 6.3 10.66 8 11 C8.33 7.37 8.66 3.74 9 0 C9.66 0 10.32 0 11 0 C11 4.29 11 8.58 11 13 C4.1640625 13.1953125 4.1640625 13.1953125 2 13 C0 11 0 11 -0.1953125 8.3984375 C-0.17210937 7.40070313 -0.14890625 6.40296875 -0.125 5.375 C-0.10695312 4.37210937 -0.08890625 3.36921875 -0.0703125 2.3359375 C-0.04710937 1.56507813 -0.02390625 0.79421875 0 0 Z " fill="#C4D0CA" transform="translate(215,317)"/>
<path d="M0 0 C6.8359375 -0.1953125 6.8359375 -0.1953125 9 0 C11 2 11 2 11.1953125 4.6015625 C11.17210937 5.59929687 11.14890625 6.59703125 11.125 7.625 C11.10695313 8.62789063 11.08890625 9.63078125 11.0703125 10.6640625 C11.03550781 11.82035156 11.03550781 11.82035156 11 13 C10.34 13 9.68 13 9 13 C8.67 9.7 8.34 6.4 8 3 C6.02 3 4.04 3 2 3 C2 6.3 2 9.6 2 13 C1.34 13 0.68 13 0 13 C0 8.71 0 4.42 0 0 Z " fill="#C4D1CA" transform="translate(264,317)"/>
<path d="M0 0 C1.9375 0.6875 1.9375 0.6875 3.9375 1.6875 C3.0625 7.5625 3.0625 7.5625 1.9375 8.6875 C-0.5 8.875 -0.5 8.875 -3.0625 8.6875 C-5.0625 6.6875 -5.0625 6.6875 -5.375 4.1875 C-5.271875 3.3625 -5.16875 2.5375 -5.0625 1.6875 C-2.0625 -0.3125 -2.0625 -0.3125 0 0 Z " fill="#322A2A" transform="translate(720.0625,216.3125)"/>
<path d="M0 0 C1.65 0 3.3 0 5 0 C4.44854729 5.23880078 3.57077907 9.97350697 2 15 C1.34 14.01 0.68 13.02 0 12 C-0.33 12.66 -0.66 13.32 -1 14 C-1.66 14 -2.32 14 -3 14 C-2.80083984 13.11248047 -2.80083984 13.11248047 -2.59765625 12.20703125 C-1.68994822 8.14553475 -0.7908887 4.08625829 0 0 Z " fill="#39363C" transform="translate(587,207)"/>
<path d="M0 0 C3.375 -0.125 3.375 -0.125 7 0 C9 2 9 2 9.1953125 4.6015625 C9.17210937 5.59929687 9.14890625 6.59703125 9.125 7.625 C9.10695313 8.62789063 9.08890625 9.63078125 9.0703125 10.6640625 C9.03550781 11.82035156 9.03550781 11.82035156 9 13 C7.54176788 13.0270043 6.08339325 13.04639787 4.625 13.0625 C3.81289062 13.07410156 3.00078125 13.08570313 2.1640625 13.09765625 C0 13 0 13 -2 12 C-2 10.35 -2 8.7 -2 7 C-1.34 7 -0.68 7 0 7 C0 8.32 0 9.64 0 11 C3.465 10.505 3.465 10.505 7 10 C6.67 7.69 6.34 5.38 6 3 C3.03 2.505 3.03 2.505 0 2 C0 1.34 0 0.68 0 0 Z " fill="#BCC7C1" transform="translate(252,317)"/>
<path d="M0 0 C3.375 -0.125 3.375 -0.125 7 0 C9 2 9 2 9.1953125 4.6015625 C9.17210938 5.59929687 9.14890625 6.59703125 9.125 7.625 C9.10695313 8.62789063 9.08890625 9.63078125 9.0703125 10.6640625 C9.03550781 11.82035156 9.03550781 11.82035156 9 13 C7.54176788 13.0270043 6.08339325 13.04639787 4.625 13.0625 C3.81289062 13.07410156 3.00078125 13.08570313 2.1640625 13.09765625 C0 13 0 13 -2 12 C-2 10.35 -2 8.7 -2 7 C-1.34 7 -0.68 7 0 7 C0 8.32 0 9.64 0 11 C3.465 10.505 3.465 10.505 7 10 C6.67 7.69 6.34 5.38 6 3 C3.03 2.505 3.03 2.505 0 2 C0 1.34 0 0.68 0 0 Z " fill="#BCC6C2" transform="translate(111,317)"/>
<path d="M0 0 C2.625 0.375 2.625 0.375 5 1 C5.04241723 3.33294775 5.04092937 5.66702567 5 8 C4 9 4 9 1.4375 9.0625 C0.633125 9.041875 -0.17125 9.02125 -1 9 C-1.625 5.625 -1.625 5.625 -2 2 C-1.34 1.34 -0.68 0.68 0 0 Z " fill="#357E73" transform="translate(347,319)"/>
<path d="M0 0 C4.70588235 0.70588235 4.70588235 0.70588235 6 2 C5.71269945 4.33944736 5.38063221 6.6739143 5 9 C3.33388095 9.042721 1.66617115 9.04063832 0 9 C-1 8 -1 8 -1.125 4.5 C-1 1 -1 1 0 0 Z " fill="#307A79" transform="translate(239,319)"/>
<path d="M0 0 C0.33 0 0.66 0 1 0 C1 6.6 1 13.2 1 20 C0.34 18.68 -0.32 17.36 -1 16 C-1.33 17.32 -1.66 18.64 -2 20 C-2.66 19.67 -3.32 19.34 -4 19 C-3.67 18.01 -3.34 17.02 -3 16 C-5.31 16.33 -7.62 16.66 -10 17 C-10.33 16.01 -10.66 15.02 -11 14 C-8.03 14 -5.06 14 -2 14 C-1.20262142 10.8104857 -0.73661631 7.99754847 -0.4375 4.75 C-0.35371094 3.85796875 -0.26992188 2.9659375 -0.18359375 2.046875 C-0.12300781 1.37140625 -0.06242188 0.6959375 0 0 Z " fill="#C2BDAD" transform="translate(610,205)"/>
<path d="M0 0 C0.99 0 1.98 0 3 0 C4.38226016 2.76452033 4.09525387 5.0461363 4.0625 8.125 C4.05347656 9.22070312 4.04445313 10.31640625 4.03515625 11.4453125 C4.02355469 12.28835937 4.01195312 13.13140625 4 14 C2.68 14 1.36 14 0 14 C0 9.38 0 4.76 0 0 Z " fill="#262223" transform="translate(650,211)"/>
<path d="M0 0 C0.94875 0.04125 1.8975 0.0825 2.875 0.125 C2.875 0.785 2.875 1.445 2.875 2.125 C1.225 2.455 -0.425 2.785 -2.125 3.125 C-2.125 5.435 -2.125 7.745 -2.125 10.125 C0.845 10.62 0.845 10.62 3.875 11.125 C3.875 11.785 3.875 12.445 3.875 13.125 C-2.5083448 13.60676187 -2.5083448 13.60676187 -5.125 11.5625 C-6.54470326 8.10197331 -5.98801515 5.70983216 -5.125 2.125 C-3.125 0.125 -3.125 0.125 0 0 Z " fill="#B4CDD3" transform="translate(284.125,316.875)"/>
<path d="M0 0 C0.94875 0.04125 1.8975 0.0825 2.875 0.125 C2.875 0.785 2.875 1.445 2.875 2.125 C1.225 2.455 -0.425 2.785 -2.125 3.125 C-2.125 5.435 -2.125 7.745 -2.125 10.125 C0.845 10.62 0.845 10.62 3.875 11.125 C3.875 11.785 3.875 12.445 3.875 13.125 C-2.5083448 13.60676187 -2.5083448 13.60676187 -5.125 11.5625 C-6.54470326 8.10197331 -5.98801515 5.70983216 -5.125 2.125 C-3.125 0.125 -3.125 0.125 0 0 Z " fill="#B4CDD3" transform="translate(185.125,316.875)"/>
<path d="M0 0 C0.94875 0.04125 1.8975 0.0825 2.875 0.125 C2.875 0.785 2.875 1.445 2.875 2.125 C1.225 2.455 -0.425 2.785 -2.125 3.125 C-2.125 5.435 -2.125 7.745 -2.125 10.125 C0.845 10.62 0.845 10.62 3.875 11.125 C3.875 11.785 3.875 12.445 3.875 13.125 C-2.5083448 13.60676187 -2.5083448 13.60676187 -5.125 11.5625 C-6.54470326 8.10197331 -5.98801515 5.70983216 -5.125 2.125 C-3.125 0.125 -3.125 0.125 0 0 Z " fill="#BCC9C8" transform="translate(103.125,316.875)"/>
<path d="M0 0 C1.67542976 0.28604898 3.34385343 0.61781233 5 1 C5 3.64 5 6.28 5 9 C3.33388095 9.042721 1.66617115 9.04063832 0 9 C-1 8 -1 8 -1.125 4.5 C-1 1 -1 1 0 0 Z " fill="#2E7173" transform="translate(126,319)"/>
<path d="M0 0 C0.99 0 1.98 0 3 0 C3 5.61 3 11.22 3 17 C2.01 17 1.02 17 0 17 C0 11.39 0 5.78 0 0 Z " fill="#B2C1BA" transform="translate(322,313)"/>
<path d="M0 0 C0.66 0 1.32 0 2 0 C2 1.65 2 3.3 2 5 C-0.64 5 -3.28 5 -6 5 C-5.67 5.99 -5.34 6.98 -5 8 C-2.69 8.33 -0.38 8.66 2 9 C2 9.66 2 10.32 2 11 C-4.0546875 11.1953125 -4.0546875 11.1953125 -6 11 C-8 9 -8 9 -8.125 5.875 C-8.08375 4.92625 -8.0425 3.9775 -8 3 C-5.36 3.33 -2.72 3.66 0 4 C0 2.68 0 1.36 0 0 Z " fill="#CFD6D4" transform="translate(146,319)"/>
<path d="M0 0 C0.99 0 1.98 0 3 0 C3 0.66 3 1.32 3 2 C2.34 2 1.68 2 1 2 C0.7834375 3.423125 0.7834375 3.423125 0.5625 4.875 C0 8 0 8 -1 10 C0.65 10 2.3 10 4 10 C4 10.33 4 10.66 4 11 C2.02 11 0.04 11 -2 11 C-2.33 12.98 -2.66 14.96 -3 17 C-3.99 17 -4.98 17 -6 17 C-4.13236819 11.27789404 -2.14710968 5.62338249 0 0 Z " fill="#B9CCCC" transform="translate(87,313)"/>
<path d="M0 0 C1.32 0 2.64 0 4 0 C4 3.63 4 7.26 4 11 C2.68 11 1.36 11 0 11 C0 7.37 0 3.74 0 0 Z " fill="#24252E" transform="translate(779,207)"/>
<path d="M0 0 C1.32 0 2.64 0 4 0 C4 3.63 4 7.26 4 11 C2.68 11 1.36 11 0 11 C0 7.37 0 3.74 0 0 Z " fill="#24252E" transform="translate(771,207)"/>
<path d="M0 0 C1.32 0 2.64 0 4 0 C4 3.63 4 7.26 4 11 C2.68 11 1.36 11 0 11 C0 7.37 0 3.74 0 0 Z " fill="#24252E" transform="translate(763,207)"/>
<path d="M0 0 C0.33 0 0.66 0 1 0 C1 3.3 1 6.6 1 10 C-0.65 10 -2.3 10 -4 10 C-5 9 -5 9 -5.0625 6.4375 C-5.041875 5.633125 -5.02125 4.82875 -5 4 C-3.35 3.67 -1.7 3.34 0 3 C0 2.01 0 1.02 0 0 Z " fill="#B2B2B6" transform="translate(628,358)"/>
<path d="M0 0 C0.33 0 0.66 0 1 0 C1 2.31 1 4.62 1 7 C-1.31 7.33 -3.62 7.66 -6 8 C-6.042721 6.33388095 -6.04063832 4.66617115 -6 3 C-5 2 -5 2 -2.4375 1.9375 C-1.2309375 1.9684375 -1.2309375 1.9684375 0 2 C0 1.34 0 0.68 0 0 Z " fill="#A3BEBF" transform="translate(258,320)"/>
<path d="M0 0 C0.33 0 0.66 0 1 0 C1 2.31 1 4.62 1 7 C-1.31 7.33 -3.62 7.66 -6 8 C-6.042721 6.33388095 -6.04063832 4.66617115 -6 3 C-5 2 -5 2 -2.4375 1.9375 C-1.2309375 1.9684375 -1.2309375 1.9684375 0 2 C0 1.34 0 0.68 0 0 Z " fill="#A3BCC0" transform="translate(117,320)"/>
<path d="M0 0 C-0.66 0.66 -1.32 1.32 -2 2 C-1.01 2.66 -0.02 3.32 1 4 C0.67 4.99 0.34 5.98 0 7 C-1.65 7 -3.3 7 -5 7 C-5.33 6.01 -5.66 5.02 -6 4 C-7.49985609 2.33289654 -7.49985609 2.33289654 -9 1 C-5.8035914 -0.06546953 -3.34252724 -0.07427838 0 0 Z " fill="#B9B9BA" transform="translate(597,361)"/>
<path d="M0 0 C4.875 0.875 4.875 0.875 6 2 C6.07226502 3.85287502 6.0838122 5.70833878 6.0625 7.5625 C6.05347656 8.57441406 6.04445312 9.58632813 6.03515625 10.62890625 C6.02355469 11.41136719 6.01195312 12.19382812 6 13 C5.01 13 4.02 13 3 13 C2.92652344 11.84371094 2.92652344 11.84371094 2.8515625 10.6640625 C2.77679688 9.66117187 2.70203125 8.65828125 2.625 7.625 C2.55539063 6.62726563 2.48578125 5.62953125 2.4140625 4.6015625 C2.23636036 1.84491121 2.23636036 1.84491121 0 0 Z " fill="#B1C0BD" transform="translate(164,317)"/>
<path d="M0 0 C0.66 0.66 1.32 1.32 2 2 C2.33 1.34 2.66 0.68 3 0 C3.66 0 4.32 0 5 0 C5.33 0.66 5.66 1.32 6 2 C6.33 1.34 6.66 0.68 7 0 C7.66 0 8.32 0 9 0 C8.34 2.31 7.68 4.62 7 7 C6.34 7 5.68 7 5 7 C5 6.01 5 5.02 5 4 C4.34 4 3.68 4 3 4 C3 4.99 3 5.98 3 7 C2.01 6.67 1.02 6.34 0 6 C0 4.02 0 2.04 0 0 Z " fill="#AEABAE" transform="translate(599,361)"/>
<path d="M0 0 C1.67542976 0.28604898 3.34385343 0.61781233 5 1 C5 2.65 5 4.3 5 6 C3.34385343 6.38218767 1.67542976 6.71395102 0 7 C-1 6 -1 6 -1.125 3.5 C-1 1 -1 1 0 0 Z " fill="#A6A4AB" transform="translate(610,361)"/>
<path d="M0 0 C1.134375 0.020625 2.26875 0.04125 3.4375 0.0625 C3.7675 0.7225 4.0975 1.3825 4.4375 2.0625 C3.4475 3.3825 2.4575 4.7025 1.4375 6.0625 C-0.4375 5.8125 -0.4375 5.8125 -2.5625 5.0625 C-3.8125 3 -3.8125 3 -4.5625 1.0625 C-3.5625 0.0625 -3.5625 0.0625 0 0 Z " fill="#1E1F20" transform="translate(786.5625,358.9375)"/>
<path d="M0 0 C1.98 0 3.96 0 6 0 C6 2.97 6 5.94 6 9 C3.36 8.67 0.72 8.34 -2 8 C-2 7.67 -2 7.34 -2 7 C-0.35 7 1.3 7 3 7 C3 5.35 3 3.7 3 2 C2.01 2 1.02 2 0 2 C0 1.34 0 0.68 0 0 Z " fill="#BAC6C2" transform="translate(206,321)"/>
<path d="M0 0 C0.66 0 1.32 0 2 0 C2 5.94 2 11.88 2 18 C1.34 18 0.68 18 0 18 C-0.73030908 11.78675502 -1.23180249 6.15901243 0 0 Z " fill="#D4CDBE" transform="translate(132,312)"/>
<path d="M0 0 C0.66 0 1.32 0 2 0 C2 2.64 2 5.28 2 8 C3.32 8 4.64 8 6 8 C6.33 7.01 6.66 6.02 7 5 C7.33 6.65 7.66 8.3 8 10 C5.36 10 2.72 10 0 10 C0 6.7 0 3.4 0 0 Z " fill="#92A5AF" transform="translate(670,427)"/>
<path d="M0 0 C3 -0.3125 3 -0.3125 6 0 C8 2 8 2 8.125 4.625 C8.08375 5.40875 8.0425 6.1925 8 7 C5.36 7 2.72 7 0 7 C0 6.67 0 6.34 0 6 C1.98 6 3.96 6 6 6 C5.67 5.01 5.34 4.02 5 3 C2.69 3 0.38 3 -2 3 C-1.34 2.01 -0.68 1.02 0 0 Z " fill="#C5CFCD" transform="translate(293,317)"/>
<path d="M0 0 C0.99 0 1.98 0 3 0 C3 3.3 3 6.6 3 10 C1.68 10 0.36 10 -1 10 C-1.33 7.36 -1.66 4.72 -2 2 C-1.34 2 -0.68 2 0 2 C0 1.34 0 0.68 0 0 Z " fill="#6D7B8E" transform="translate(692,427)"/>
<path d="M0 0 C-2.35953094 2.35953094 -3.77895617 2.49141413 -7 3 C-7.33 5.31 -7.66 7.62 -8 10 C-10 8 -10 8 -10.3125 5.0625 C-10 2 -10 2 -8.9375 0.0625 C-5.87530347 -1.61676907 -3.30629059 -0.68621125 0 0 Z " fill="#AEC9D0" transform="translate(245,318)"/>
<path d="M0 0 C0.99 0.495 0.99 0.495 2 1 C2 1.99 2 2.98 2 4 C2.66 4 3.32 4 4 4 C4.33 3.01 4.66 2.02 5 1 C5.33 1 5.66 1 6 1 C6 3.31 6 5.62 6 8 C4.35 8 2.7 8 1 8 C0.67 5.36 0.34 2.72 0 0 Z " fill="#1F1F22" transform="translate(582,217)"/>
<path d="M0 0 C0.99 0.33 1.98 0.66 3 1 C2.0925 1.53625 1.185 2.0725 0.25 2.625 C-3.20438056 4.90063458 -4.91051685 7.46395159 -7 11 C-7.33 10.01 -7.66 9.02 -8 8 C-6.85546875 6.2109375 -6.85546875 6.2109375 -5.1875 4.375 C-4.64480469 3.76398437 -4.10210937 3.15296875 -3.54296875 2.5234375 C-2 1 -2 1 0 0 Z " fill="#2A96BD" transform="translate(9,5)"/>
<path d="M0 0 C0.33 0 0.66 0 1 0 C1.33 1.98 1.66 3.96 2 6 C3.65 6.33 5.3 6.66 7 7 C7 4.69 7 2.38 7 0 C7.33 0 7.66 0 8 0 C8 2.64 8 5.28 8 8 C5.6739143 8.38063221 3.33944736 8.71269945 1 9 C0 8 0 8 -0.09765625 6.15234375 C-0.06510417 4.1015625 -0.03255208 2.05078125 0 0 Z " fill="#ADC0BF" transform="translate(124,321)"/>
<path d="M0 0 C0.66 0 1.32 0 2 0 C2 4.29 2 8.58 2 13 C1.34 13 0.68 13 0 13 C-0.96661363 9.87819599 -0.98988909 7.47916205 -0.5625 4.25 C-0.46066406 3.45078125 -0.35882813 2.6515625 -0.25390625 1.828125 C-0.17011719 1.22484375 -0.08632813 0.6215625 0 0 Z " fill="#CFCFC1" transform="translate(337,317)"/>
<path d="M0 0 C0.66 0 1.32 0 2 0 C2 4.29 2 8.58 2 13 C1.34 13 0.68 13 0 13 C-0.96661363 9.87819599 -0.98988909 7.47916205 -0.5625 4.25 C-0.46066406 3.45078125 -0.35882813 2.6515625 -0.25390625 1.828125 C-0.17011719 1.22484375 -0.08632812 0.6215625 0 0 Z " fill="#CFCFC2" transform="translate(224,317)"/>
<path d="M0 0 C2 2 2 2 2.1953125 4.1640625 C2.17210937 4.97617187 2.14890625 5.78828125 2.125 6.625 C2.10695313 7.44226563 2.08890625 8.25953125 2.0703125 9.1015625 C2.03550781 10.04128906 2.03550781 10.04128906 2 11 C1.67 11 1.34 11 1 11 C0.67 8.69 0.34 6.38 0 4 C-3.58327753 2.99782936 -3.58327753 2.99782936 -7 4 C-7 3.01 -7 2.02 -7 1 C-4.48718205 -0.25640898 -2.78302919 -0.20872719 0 0 Z " fill="#CBCDC3" transform="translate(352,317)"/>
<path d="M0 0 C0.99 0 1.98 0 3 0 C3 2.31 3 4.62 3 7 C1.68 7 0.36 7 -1 7 C-1.04254356 5.00045254 -1.04080783 2.99958364 -1 1 C-0.67 0.67 -0.34 0.34 0 0 Z " fill="#BFCBCF" transform="translate(638,214)"/>
<path d="M0 0 C1.32 0 2.64 0 4 0 C4 2.31 4 4.62 4 7 C2.35 7 0.7 7 -1 7 C-1 5.68 -1 4.36 -1 3 C0.32 3 1.64 3 3 3 C3 2.34 3 1.68 3 1 C2.01 0.67 1.02 0.34 0 0 Z " fill="#AEABAE" transform="translate(581,361)"/>
<path d="M0 0 C1.65 0 3.3 0 5 0 C4.01 0.33 3.02 0.66 2 1 C2 1.99 2 2.98 2 4 C2.99 4.33 3.98 4.66 5 5 C4.01 5 3.02 5 2 5 C2 6.32 2 7.64 2 9 C1.34 9 0.68 9 0 9 C0 6.03 0 3.06 0 0 Z " fill="#ABAAAB" transform="translate(572,359)"/>
<path d="M0 0 C0.33 1.32 0.66 2.64 1 4 C-1.31 4 -3.62 4 -6 4 C-6 3.01 -6 2.02 -6 1 C-4 0 -4 0 0 0 Z " fill="#676868" transform="translate(685,213)"/>
<path d="M0 0 C0.33 1.32 0.66 2.64 1 4 C-1.31 4 -3.62 4 -6 4 C-6 3.01 -6 2.02 -6 1 C-4 0 -4 0 0 0 Z " fill="#676868" transform="translate(604,213)"/>
<path d="M0 0 C0.99 0.33 1.98 0.66 3 1 C3 1.66 3 2.32 3 3 C1.02 3.99 1.02 3.99 -1 5 C-1 7.31 -1 9.62 -1 12 C-3 10 -3 10 -3.3125 6.5625 C-3 3 -3 3 -1.5 1.0625 C-1.005 0.711875 -0.51 0.36125 0 0 Z " fill="#5A4131" transform="translate(678,211)"/>
<path d="M0 0 C0.99 0.33 1.98 0.66 3 1 C3 1.66 3 2.32 3 3 C1.02 3.99 1.02 3.99 -1 5 C-1 7.31 -1 9.62 -1 12 C-3 10 -3 10 -3.3125 6.5625 C-3 3 -3 3 -1.5 1.0625 C-1.005 0.711875 -0.51 0.36125 0 0 Z " fill="#5A4131" transform="translate(597,211)"/>
<path d="M0 0 C0.33 0 0.66 0 1 0 C1.33 1.98 1.66 3.96 2 6 C4.97 6.495 4.97 6.495 8 7 C8 7.66 8 8.32 8 9 C5.66705225 9.04241723 3.33297433 9.04092937 1 9 C0 8 0 8 -0.09765625 6.15234375 C-0.06510417 4.1015625 -0.03255208 2.05078125 0 0 Z " fill="#C5C5B8" transform="translate(280,321)"/>
<path d="M0 0 C0.33 0 0.66 0 1 0 C1.33 1.98 1.66 3.96 2 6 C4.97 6.495 4.97 6.495 8 7 C8 7.66 8 8.32 8 9 C5.66705225 9.04241723 3.33297433 9.04092937 1 9 C0 8 0 8 -0.09765625 6.15234375 C-0.06510417 4.1015625 -0.03255208 2.05078125 0 0 Z " fill="#C5C5B9" transform="translate(181,321)"/>
<path d="M0 0 C0.99 0 1.98 0 3 0 C3 1.65 3 3.3 3 5 C2.01 5.495 2.01 5.495 1 6 C0.26924352 8.3140622 -0.40138258 10.64828869 -1 13 C-2.07310858 9.72814447 -1.89263102 7.57052408 -1.0625 4.25 C-0.86785156 3.45078125 -0.67320312 2.6515625 -0.47265625 1.828125 C-0.31667969 1.22484375 -0.16070313 0.6215625 0 0 Z " fill="#404354" transform="translate(578,212)"/>
<path d="M0 0 C0.33 0 0.66 0 1 0 C1.09765625 6.15234375 1.09765625 6.15234375 1 8 C0 9 0 9 -3.0625 9.0625 C-4.031875 9.041875 -5.00125 9.02125 -6 9 C-6.33 8.34 -6.66 7.68 -7 7 C-5.02 6.67 -3.04 6.34 -1 6 C-0.67 4.02 -0.34 2.04 0 0 Z " fill="#B3CCCF" transform="translate(352,321)"/>
<path d="M0 0 C0.99 1.485 0.99 1.485 2 3 C5.56769552 3.73606499 5.56769552 3.73606499 9 4 C9 4.66 9 5.32 9 6 C2.84765625 6.09765625 2.84765625 6.09765625 1 6 C0 5 0 5 -0.0625 2.4375 C-0.041875 1.633125 -0.02125 0.82875 0 0 Z " fill="#C3C9C1" transform="translate(292,324)"/>
<path d="M0 0 C0.99 1.485 0.99 1.485 2 3 C5.56769552 3.73606499 5.56769552 3.73606499 9 4 C9 4.66 9 5.32 9 6 C2.84765625 6.09765625 2.84765625 6.09765625 1 6 C0 5 0 5 -0.0625 2.4375 C-0.041875 1.633125 -0.02125 0.82875 0 0 Z " fill="#C3C8C1" transform="translate(139,324)"/>
<path d="M0 0 C3 3.625 3 3.625 3 7 C1.35 7 -0.3 7 -2 7 C-1.34 4.69 -0.68 2.38 0 0 Z " fill="#538085" transform="translate(88,316)"/>
<path d="M0 0 C2.97 0 5.94 0 9 0 C6 3 6 3 3.3125 3.1875 C2.1678125 3.0946875 2.1678125 3.0946875 1 3 C0.67 2.01 0.34 1.02 0 0 Z " fill="#B6BCC1" transform="translate(680,219)"/>
<path d="M0 0 C1.65 0 3.3 0 5 0 C4.52433594 0.82757813 4.52433594 0.82757813 4.0390625 1.671875 C2.87290025 4.28477989 2.59954289 6.40579002 2.375 9.25 C2.30023437 10.14203125 2.22546875 11.0340625 2.1484375 11.953125 C2.09945312 12.62859375 2.05046875 13.3040625 2 14 C1.67 14 1.34 14 1 14 C0.67 9.38 0.34 4.76 0 0 Z " fill="#334A67" transform="translate(653,211)"/>
<path d="M0 0 C1.65 0 3.3 0 5 0 C5 1.32 5 2.64 5 4 C3.35 4 1.7 4 0 4 C0 2.68 0 1.36 0 0 Z " fill="#413938" transform="translate(778,221)"/>
<path d="M0 0 C1.65 0 3.3 0 5 0 C5 1.32 5 2.64 5 4 C3.35 4 1.7 4 0 4 C0 2.68 0 1.36 0 0 Z " fill="#413938" transform="translate(770,221)"/>
<path d="M0 0 C1.65 0 3.3 0 5 0 C5 1.32 5 2.64 5 4 C3.35 4 1.7 4 0 4 C0 2.68 0 1.36 0 0 Z " fill="#413938" transform="translate(762,221)"/>
<path d="M0 0 C2.16874252 0.50603992 3.99967627 0.99983813 6 2 C5.67 3.32 5.34 4.64 5 6 C4.01 6 3.02 6 2 6 C2 4.35 2 2.7 2 1 C1.34 0.67 0.68 0.34 0 0 Z " fill="#84837F" transform="translate(718,216)"/>
<path d="M0 0 C0.66 0 1.32 0 2 0 C2.66 0.99 3.32 1.98 4 3 C4.99 3.66 5.98 4.32 7 5 C5.02 5 3.04 5 1 5 C0.34 3.68 -0.32 2.36 -1 1 C-0.67 0.67 -0.34 0.34 0 0 Z " fill="#808183" transform="translate(781,361)"/>
<path d="M0 0 C0.33 0 0.66 0 1 0 C1.33 1.98 1.66 3.96 2 6 C3.32 6.33 4.64 6.66 6 7 C6 7.66 6 8.32 6 9 C4.33388095 9.042721 2.66617115 9.04063832 1 9 C0 8 0 8 -0.09765625 6.15234375 C-0.06510417 4.1015625 -0.03255208 2.05078125 0 0 Z " fill="#C7C6B9" transform="translate(237,321)"/>
<path d="M0 0 C1.65 0 3.3 0 5 0 C4.67 1.32 4.34 2.64 4 4 C2.68 4 1.36 4 0 4 C0 2.68 0 1.36 0 0 Z " fill="#307871" transform="translate(253,324)"/>
<path d="M0 0 C1.65 0 3.3 0 5 0 C4.67 1.32 4.34 2.64 4 4 C2.68 4 1.36 4 0 4 C0 2.68 0 1.36 0 0 Z " fill="#307274" transform="translate(112,324)"/>
<path d="M0 0 C1.32 0 2.64 0 4 0 C3.67 1.65 3.34 3.3 3 5 C2.01 4.67 1.02 4.34 0 4 C0 2.68 0 1.36 0 0 Z " fill="#2D5480" transform="translate(678,431)"/>
<path d="M0 0 C1.73543126 2.60314689 2.61121812 3.98694043 3 7 C2.34 7.66 1.68 8.32 1 9 C0.01 6.36 -0.98 3.72 -2 1 C-1.34 0.67 -0.68 0.34 0 0 Z " fill="#B7C3BC" transform="translate(90,314)"/>
<path d="M0 0 C1.32 0.33 2.64 0.66 4 1 C3.67 2.32 3.34 3.64 3 5 C2.01 4.67 1.02 4.34 0 4 C0 2.68 0 1.36 0 0 Z " fill="#315A85" transform="translate(686,431)"/>
<path d="M0 0 C0.99 0.33 1.98 0.66 3 1 C3 2.32 3 3.64 3 5 C1.68 4.67 0.36 4.34 -1 4 C-0.67 2.68 -0.34 1.36 0 0 Z " fill="#C9C9C7" transform="translate(611,362)"/>
</svg>
